<svg width="150" height="176" viewBox="0 0 150 176" fill="none" xmlns="http://www.w3.org/2000/svg">
<circle cx="75" cy="83" r="75" fill="#D9D9D9"/>
<path d="M101.48 33.488C103.272 32.8053 105.789 32.464 109.032 32.464C112.275 32.464 115.176 32.6773 117.736 33.104C115.091 52.7307 113 70.5227 111.464 86.48C110.013 102.352 109.203 110.715 109.032 111.568C108.947 112.421 108.904 113.189 108.904 113.872C108.989 116.091 110.056 117.2 112.104 117.2C117.224 117.2 124.349 111.312 133.48 99.536C135.101 104.059 136.04 107.088 136.296 108.624C132.2 115.109 127.251 120.443 121.448 124.624C115.731 128.72 110.312 130.768 105.192 130.768C100.072 130.768 96.5307 129.445 94.568 126.8C92.6053 124.155 91.624 121.211 91.624 117.968C91.624 117.2 91.7093 115.707 91.88 113.488C92.136 111.269 93.8427 97.4453 97 72.016L76.008 120.528H65.128L58.856 72.784L49.896 112.464C48.4453 118.779 46.056 123.429 42.728 126.416C39.4853 129.403 35.9013 130.896 31.976 130.896C28.0507 130.896 24.8507 129.744 22.376 127.44C19.7307 124.965 18.408 121.467 18.408 116.944C18.408 107.899 25.4053 100.176 39.4 93.776C46.9947 57.3387 51.0907 37.1573 51.688 33.232C53.736 32.72 56.4667 32.464 59.88 32.464C63.3787 32.464 65.768 32.5493 67.048 32.72H67.944L75.88 92.24L101.48 34.128V33.488ZM27.496 114.768C27.496 117.499 28.5627 118.864 30.696 118.864C32.1467 118.864 33.3413 117.712 34.28 115.408C35.4747 112.592 36.456 108.88 37.224 104.272C30.7387 107.941 27.496 111.44 27.496 114.768Z" fill="black"/>
</svg>
